<?xml version="1.0" encoding="UTF-8" standalone="no"?>
<svg xmlns="http://www.w3.org/2000/svg" width="192.4375" height="138.5">
  <path fill="#00a000" fill-rule="evenodd" stroke="#000" stroke-width="2.87356567" d="M5.445791 5.44156h181.55501v127.62641H5.445791z"/>
  <path d="M6.098152 129.07618c0-1.925.2058-2.7125.45733-1.75.25152.96251.25152 2.5375 0 3.5-.25153.96251-.45733.175-.45733-1.75zm1.85623 2.57844c.45266-.45266 49.54488-14.82875 59.26829-17.35603l5.856514-1.52221-.57297-3.53085c-1.0727-6.61023-.81231-6.6226-28.640064 1.35969-14.025 4.02301-28.3125 8.20257-31.75 9.28791l-6.25 1.97333V6.07619l43.75.0391c37.805798.0338 43.324808.22418 40.620498 1.40106-3.20717 1.39572-4.18665 3.29532-7.76516 15.0598-7.19527 23.65472-6.82886 56.35909.91958 82.0761 1.33831 4.44184 3.32061 8.8791 4.4051 9.86055 4.92245 4.45475 30.33213 4.21038 48.74604-.46881 22.39406-5.69059 40.7995-20.85936 47.28269-38.96784l1.96911-5.5.0361 31.25.036 31.24999H96.69944c-49.041668 0-88.976968-.1897-88.745108-.42156zm29.91177-32.92237 28.5-8.29812-.28704-3.42897c-.15787-1.88593-.86896-4.0115-1.58021-4.72347-1.29148-1.2928-1.97639-1.11568-52.38275 13.54612l-5.25 1.52707v4.86065c0 3.23409.4183 4.85298 1.25 4.83775.6875-.0126 14.075-3.75707 29.75-8.32103zm-14-20.02346c6.325-1.87926 17.35-5.11654 24.5-7.19395 7.15-2.0774 13.5625-4.20605 14.25-4.73032 1.41076-1.07581 1.7147-8.30309.38378-9.12565-1.29448-.80003-50.72885 12.81296-54.10394 14.89888-1.13842.70358-1.42709 8.78786-.35217 9.86277.37271.37271 1.38521.45885 2.25.19138.86478-.26745 6.74733-2.02385 13.07233-3.90311zm14-26.65243c14.025-4.0018 26.0625-7.71455 26.75-8.25053 1.32625-1.03398 1.77322-9.73054.5-9.72835-.4125.0007-7.725 2.03421-16.25 4.5189-8.525 2.4847-20.45 5.92658-26.5 7.64864-6.05 1.72206-11.5625 3.56865-12.25 4.10354-1.32074 1.02756-1.73851 7.90579-.55223 9.09206.38377.38377 1.17127.51642 1.75.29476.57872-.22165 12.52723-3.67721 26.55223-7.67902zm.5-21.39666c34.442834-9.96544 32.271284-9.08806 33.617964-13.58288 1.14613-3.82545.63145-7.58182-.90844-6.63012-.66182.40903-48.993524 14.63158-55.709524 16.39362-3.4424.90317-4.5 2.35834-4.5 6.19165 0 4.17501.74773 5.3618 2.97457 4.72121.83899-.24135 11.87543-3.43342 24.52543-7.09348zm57.736288 74.7922c-1.69975-1.4084-2.93459-4.74077-4.95645-13.37571-2.40188-10.25791-2.6963-13.49815-2.72587-30-.0282-15.72792.30577-19.97377 2.22874-28.3355 1.24405-5.40952 2.90391-11.37202 3.68858-13.25l1.42667-3.4145 12.30102.0157c28.87808.0368 50.03429 9.37292 61.58169 27.17573 9.98547 15.39476 7.80024 28.44131-7.29325 43.54305-12.55051 12.55737-27.09361 17.91699-51.48741 18.97488-11.22987.487-12.73002.35148-14.76372-1.33362zm88.76372-53.24135c0-4.68989-7.48191-16.7422-15.0309-24.21269-11.61564-11.49485-26.93121-18.33591-47.4691-21.20318-1.65-.23035 11.9625-.48625 30.25-.56866l33.25-.14983v24c0 13.2-.225 24-.5 24s-.5-.83954-.5-1.86564z"/>
</svg>