<?xml version="1.0" encoding="UTF-8" standalone="no"?>
<svg
   xmlns:dc="http://purl.org/dc/elements/1.1/"
   xmlns:cc="http://creativecommons.org/ns#"
   xmlns:rdf="http://www.w3.org/1999/02/22-rdf-syntax-ns#"
   xmlns:svg="http://www.w3.org/2000/svg"
   xmlns="http://www.w3.org/2000/svg"
   id="svg4594"
   height="80"
   width="100"
   version="1.1">
  <metadata
     id="metadata11">
    <rdf:RDF>
      <cc:Work
         rdf:about="">
        <dc:format>image/svg+xml</dc:format>
        <dc:type
           rdf:resource="http://purl.org/dc/dcmitype/StillImage" />
        <dc:title></dc:title>
      </cc:Work>
    </rdf:RDF>
  </metadata>
  <defs
     id="defs4597" />
  <g
     transform="translate(0.19335933,2.3011965)"
     id="g4204">
    <path
       id="path6752"
       style="fill:#f7ae14;fill-opacity:1;fill-rule:nonzero;stroke:none"
       d="m 30.482697,69.612983 c 0.05602,0.0298 0.361286,0.238375 0.603385,0.405982 0.19368,0.08582 0.521445,0.346388 0.823138,0.528894 0.2199,0.171331 0.618284,0.376184 0.953499,0.573588 0.309142,0.111738 0.662979,0.387359 0.975846,0.584763 0.65553,0.42833 1.575507,0.927426 2.439614,1.404175 l -6.324375,0 c -0.08582,-0.01787 -0.234501,-0.122763 -0.595937,-0.309142 -0.461851,-0.205002 -0.79334,-0.417155 -1.296161,-0.6965 -0.547518,-0.320317 -1.046614,-0.610835 -1.631376,-0.983296 -0.700226,-0.450677 -1.117381,-0.756094 -1.609029,-1.154626 -0.573589,-0.465576 -0.905079,-0.789617 -1.236569,-1.188149 -0.36501,-0.443227 -0.487922,-0.774718 -0.487922,-1.128555 0,-0.413431 0.134085,-0.718848 0.405981,-1.046613 0.264596,-0.394807 0.636908,-0.640632 1.076411,-0.931151 0.320316,-0.294094 0.9386,-0.551241 1.486116,-0.778442 0.424604,-0.346388 1.102482,-0.439503 1.664897,-0.636906 0.402257,-0.186231 1.04289,-0.331491 1.758013,-0.528894 0.696501,-0.297968 1.478668,-0.409707 2.290631,-0.640632 0.770993,-0.238375 1.620202,-0.4693 2.432165,-0.726297 0.707676,-0.272045 1.55316,-0.52517 2.223589,-0.808239 0.569864,-0.402257 1.221669,-0.577314 1.653723,-0.886456 0.402258,-0.383633 0.651806,-0.622009 0.651806,-0.942325 0,-0.379909 -0.189806,-0.756094 -0.569864,-1.150902 -0.435779,-0.521444 -0.819413,-0.793341 -1.325959,-1.180699 -0.618284,-0.487922 -1.024266,-0.778442 -1.560609,-1.1658 -0.622008,-0.473025 -0.942324,-0.763544 -1.229119,-1.117381 l 5.039388,0 c -0.08195,-0.08195 0.205002,0.08194 0.506546,0.238374 0.264596,0.122763 0.677878,0.372461 1.117381,0.640632 0.4097,0.260723 0.923695,0.569865 1.433966,0.912528 0.487924,0.283069 0.979571,0.711399 1.411624,1.102482 0.316592,0.335215 0.793341,0.782167 1.07641,1.180699 0.182357,0.320316 0.432055,0.770993 0.432055,1.121106 0,0.346387 -0.171332,0.804514 -0.510271,1.143453 -0.417155,0.249697 -0.789616,0.636907 -1.352031,0.912528 -0.55869,0.253273 -1.195597,0.540067 -1.906996,0.797064 -0.819408,0.219901 -1.45259,0.51772 -2.219858,0.778443 -1.020541,0.290518 -1.925619,0.681602 -3.050449,1.039164 -1.214222,0.331489 -2.39492,0.759819 -3.80282,1.21422 -0.931151,0.230925 -1.534537,0.592212 -2.003837,0.919977 -0.484198,0.216027 -0.6965,0.692776 -0.6965,1.095033 -0.03367,0.357562 0.316591,0.931151 0.953498,1.4079 z m 27.167248,0.424604 c 0.201128,0.134087 0.741195,0.513997 1.329682,0.85666 0.551242,0.338938 1.191877,0.685326 1.787815,1.024266 0.700217,0.286645 1.471216,0.78589 2.25711,1.191872 l -6.756435,0 c -0.006,0 -0.03337,0 -0.104291,0 -0.272045,-0.08939 -0.450676,-0.238374 -0.830585,-0.443227 -0.450677,-0.301693 -0.808239,-0.443228 -1.288713,-0.726298 -0.484199,-0.391083 -0.964672,-0.599661 -1.474943,-0.942324 -0.528894,-0.387359 -0.979571,-0.70395 -1.393002,-1.07641 -0.465575,-0.42833 -0.759818,-0.748645 -1.035439,-1.128555 -0.346388,-0.435779 -0.405982,-0.75237 -0.405982,-1.106207 -0.06704,-0.372461 0.09296,-0.622009 0.29052,-0.916252 0.156433,-0.413431 0.439502,-0.558692 0.73747,-0.797066 0.268172,-0.342663 0.648082,-0.446952 1.03544,-0.625733 0.379909,-0.201129 0.785892,-0.331489 1.195597,-0.454402 0.547518,-0.257146 1.355756,-0.365011 2.327878,-0.677878 0.905078,-0.32404 1.996387,-0.651805 3.076522,-1.035439 0.990744,-0.424605 2.16399,-0.763543 3.236682,-1.143453 1.013087,-0.413431 1.974041,-0.707675 2.718956,-0.972122 0.305423,-0.223475 0.692781,-0.305417 0.864112,-0.491647 0.167459,-0.227051 0.268172,-0.391084 0.268172,-0.622009 -0.10036,-0.42088 -0.174907,-0.707674 -0.528898,-1.11738 -0.402253,-0.487924 -0.770987,-0.815688 -1.255188,-1.232844 -0.48793,-0.461851 -0.990744,-0.834311 -1.508466,-1.240293 -0.640636,-0.409706 -0.942329,-0.778441 -1.262635,-1.117381 l 4.845703,0 c -0.08942,-0.0029 0.122762,0.08194 0.413431,0.238374 0.205004,0.07449 0.655532,0.368736 1.095035,0.622009 0.361286,0.216028 0.927422,0.551242 1.456321,0.879007 0.461846,0.238374 1.024264,0.666704 1.482393,1.020541 0.391076,0.297968 0.834309,0.700225 1.136002,1.046614 0.230924,0.312867 0.454399,0.662979 0.454399,0.964672 -0.100478,0.145408 -0.07448,0.528893 -0.216028,0.838035 -0.167754,0.297969 -0.379911,0.622009 -0.715124,0.9386 -0.372463,0.241951 -0.778446,0.636908 -1.333405,0.953498 -0.644355,0.297968 -1.255188,0.610835 -2.100675,0.875282 -0.119186,-0.02979 -0.383641,0.122763 -0.826862,0.264596 -0.547523,0.111738 -0.957224,0.309142 -1.560611,0.506547 -0.681604,0.123061 -1.244022,0.402257 -1.936792,0.625732 -0.752373,0.182357 -1.359478,0.424605 -1.988936,0.622009 -0.651814,0.07837 -1.18443,0.368736 -1.653728,0.528894 -0.551241,0.115314 -0.778441,0.264297 -0.938599,0.312867 -0.797064,0.205002 -1.340857,0.487922 -1.69097,0.770993 -0.428329,0.249697 -0.525169,0.592211 -0.525169,0.93115 -0.0298,0.450676 0.439504,1.162075 1.322234,1.854852 z m -18.537343,-21.882041 0,3.508576 c 0,0.588488 -0.320315,0.960947 -0.953498,0.960947 l -4.026296,0 c -0.733747,0 -0.979571,-0.312866 -0.979571,-0.938599 l 0,-5.560832 c -0.14511,-0.905078 -0.242248,-1.556885 -0.297968,-2.152821 -0.07449,-0.692775 -0.07449,-1.147178 -0.07449,-1.649999 0,-0.681603 0.03725,-1.188149 0.115314,-1.649998 0.0447,-0.577314 0.167756,-0.864109 0.257147,-1.195598 0.0894,-0.413431 0.175206,-0.599661 0.260723,-0.811964 0.0029,-0.28307 0.145408,-0.405981 0.163881,-0.566139 l -2.093225,0 c -0.22735,0 -0.301694,-0.03725 -0.424605,-0.115315 -0.175206,-0.167756 -0.22735,-0.175204 -0.309143,-0.279196 -0.145409,-0.223475 -0.137959,-0.212451 -0.182654,-0.31659 -0.04857,-0.119188 -0.06346,-0.186231 -0.06346,-0.238376 l 0.633182,-2.223587 c -0.07449,-0.163883 0.06704,-0.193679 0.201129,-0.272045 0.115315,-0.175205 0.275621,-0.141536 0.435779,-0.175205 0.122763,-0.07091 0.301693,-0.05959 0.435778,-0.07449 0.07062,-0.0298 0.204705,-0.0298 0.219602,-0.0298 l 3.38194,0 c 0.08939,-0.234799 0.208578,-0.420881 0.312867,-0.558692 -0.01192,-0.205001 0.234799,-0.338938 0.37246,-0.588486 -0.03367,-0.223477 0.219901,-0.268172 0.387359,-0.484198 0.167756,-0.29052 0.346387,-0.42833 0.532618,-0.651806 0.130511,-0.33149 0.357562,-0.435779 0.51772,-0.636907 0.05602,-0.22735 0.264596,-0.365011 0.320315,-0.473025 0.286944,-0.502821 0.685328,-0.756094 0.931151,-1.095034 0.223477,-0.454401 0.51772,-0.633181 0.811964,-0.893904 0.245823,-0.327765 0.651805,-0.4693 1.076404,-0.629458 0.391084,-0.264596 1.001919,-0.264596 1.728215,-0.320315 0.629459,-0.08194 1.478668,-0.141536 2.204965,-0.186231 0.622009,-0.10429 1.396727,-0.07837 2.018736,-0.10429 0.588487,-0.05602 1.188147,-0.04857 1.698418,-0.05959 0.417156,-0.02086 0.934876,-0.02086 1.251467,-0.02086 l 0.55869,0 c 0.681603,0 1.687245,0.02681 2.763656,0.08194 1.072685,0.02681 2.20124,0.148985 3.352142,0.290519 0.748646,0.05602 1.348307,0.174907 1.765462,0.361287 0.316592,0.06704 0.733746,0.357562 0.949774,0.51772 0.0029,0.01192 0.163882,0.171331 0.331493,0.350112 0.134081,0.141535 0.346379,0.379909 0.540064,0.603386 0.10789,0.107867 0.383629,0.435779 0.558689,0.640632 0.152564,0.122763 0.309141,0.357562 0.402253,0.465574 l 0.134093,0.163883 c 0.145411,0.242249 0.461846,0.573589 0.703947,0.879007 0.17133,0.216027 0.469305,0.59966 0.692781,0.893905 0.167754,0.286942 0.409701,0.569863 0.569866,0.815688 0.04106,0.216026 0.272044,0.461851 0.342661,0.640631 l 3.426632,0 c 0.417149,0 0.744915,0.07837 0.96839,0.238374 0.137964,0.08195 0.331496,0.264596 0.331496,0.312867 l 0.633177,2.223589 c -0.03365,-0.0029 -0.02083,0.130212 -0.07095,0.238374 -0.04859,0.09296 -0.104243,0.212451 -0.186226,0.316591 -0.148987,-0.01192 -0.178789,0.197254 -0.301693,0.279196 -0.219899,-0.006 -0.264596,0.115314 -0.41716,0.115314 l -2.096945,0 c 0.01788,0.160009 0.06706,0.346387 0.145105,0.566139 0.03365,0.148984 0.17133,0.480474 0.268173,0.800791 0.08189,0.234501 0.178778,0.711399 0.249701,1.176973 -0.02683,0.357563 0.104243,1.020541 0.104243,1.679797 -0.0059,0.458126 -0.01494,1.061512 -0.05212,1.676071 -0.148987,0.510271 -0.148987,1.322234 -0.342672,2.126748 l 0,5.560832 c 0,0.56614 -0.331484,0.9386 -0.994463,0.9386 l -4.026301,0 c -0.692769,0 -0.9386,-0.320316 -0.9386,-0.960947 l 0,-3.508577 -21.230228,0 z m 20.462963,-13.78103 c -0.469301,-0.785892 -0.845486,-1.404176 -1.474943,-1.843679 -0.744921,-0.450677 -1.337133,-0.778442 -2.141647,-0.998194 -0.830587,-0.264595 -1.672347,-0.357562 -2.607222,-0.417155 -0.964672,-0.09296 -1.888374,-0.09296 -2.85677,-0.09296 l -2.435891,0 c -0.867833,0 -1.705868,0.03338 -2.514106,0.10429 -0.845486,0.03367 -1.571784,0.219901 -2.275733,0.446952 -0.726298,0.167458 -1.340858,0.562415 -1.899548,1.009367 -0.562409,0.417156 -1.009361,1.039165 -1.359474,1.791534 l 19.565334,0 z m -23.587904,10.801348 27.45777,0 0,-3.352143 -5.866254,0 0,-2.979682 4.912747,0 -0.905079,-1.489842 -23.71826,0 -0.957224,1.489842 4.96489,0 0,2.979682 -5.88859,0 0,3.352143" />
    <path
       style="opacity:1;fill:none;fill-opacity:1;stroke:#f7ae14;stroke-width:3.5;stroke-linecap:round;stroke-linejoin:round;stroke-miterlimit:4;stroke-dasharray:none;stroke-dashoffset:0;stroke-opacity:1"
       d="m 70.480469,52.308594 16.322265,0.0059 L 68.322266,28.175781 49.839844,4.0371094 31.326172,28.162109 l -18.515625,24.125 16.322265,0.0059"
       id="path3345" />
  </g>
</svg>
